Coordinates
version=1
nRows=14
nColumns=33
inDegrees=yes

Units are S.I. units (second, meters, Newtons, ...)
Angles are in degrees.

endheader
time	ground_thorax_rot_x	ground_thorax_rot_y	ground_thorax_rot_z	ground_thorax_tx	ground_thorax_ty	ground_thorax_tz	clav_prot_r	clav_elev_r	scapula_abduction_r	scapula_elevation_r	scapula_upward_rot_r	scapula_winging_r	shoulder_elv_r	plane_of_elev_r	axial_rot_r	elbow_flexion_r	pro_sup_r	wrist_flex_r	wrist_dev_r	clav_prot_l	clav_elev_l	scapula_abduction_l	scapula_elevation_l	scapula_upward_rot_l	scapula_winging_l	shoulder_elv_l	plane_of_elev_l	axial_rot_l	elbow_flexion_l	pro_sup_l	wrist_flex_l	wrist_dev_l
      7.73000000	     40.38351607	     11.97773275	     13.31274184	   -165.72251798	    809.75972944	      6.65353350	     13.21213655	     41.70563853	     40.88947162	     45.00000000	    -24.53437289	   2790.25429790	  -3897.23892243	     32.10124587	     50.74355314	    371.09163948	      2.05678763	     17.90273747	     12.08237732	      7.98394756	    -45.00000000	    -38.16273946	     45.00000000	    -45.00000000	  -1348.84032227	    267.23532687	    134.21900533	   -179.99999979	   1450.72491894	     30.87800862	      8.92524162	    -21.71299982
      7.74000000	     40.42210677	     12.15431702	     13.60592720	   -161.65498659	    807.14656777	      6.72360063	     14.17371887	     42.06940404	     41.30067294	     45.00000000	    -24.49573603	   2790.21361257	  -3897.60857231	     31.92301983	     51.07587446	    370.99973852	      2.63056667	     17.81612303	     12.33687930	      7.37400708	    -45.00000000	    -37.89809280	     45.00000000	    -45.00000000	  -1349.57516610	    266.95790778	    134.45888656	   -179.99999979	   1450.67045181	     30.57111167	      9.04724947	    -21.57281782
      7.75000000	     40.40798733	     12.31480521	     13.86884251	   -157.56556517	    804.52755793	      6.79479422	     14.42063932	     42.21365118	     41.45183495	     45.00000000	    -24.17882426	   2790.34139693	  -3897.96538980	     31.70970264	     51.50845869	    370.91400282	      3.33299297	     17.73216382	     12.45512298	      7.15246874	    -45.00000000	    -37.80425135	     45.00000000	    -45.00000000	  -1350.04497042	    266.75849341	    134.41454905	   -179.99999979	   1450.46905959	     30.40703362	      9.28040034	    -21.42976663
      7.76000000	     40.37328315	     12.53972303	     14.15829112	   -153.46991159	    801.91555642	      6.86537785	     14.22292025	     42.24138985	     41.35485222	     45.00000000	    -24.10777303	   2790.51953370	  -3898.26201226	     31.79299761	     51.62960820	    370.79500174	      3.97341973	     17.61286711	     12.63024194	      7.30918470	    -45.00000000	    -37.82297109	     45.00000000	    -45.00000000	  -1350.43857340	    266.47163620	    134.35674717	   -179.99999979	   1450.33374260	     30.44196981	      9.49281213	    -21.32898561
      7.77000000	     40.31139370	     12.70789698	     14.41061460	   -149.38091519	    799.32287344	      6.93335023	     14.03150977	     42.21736722	     41.38838685	     45.00000000	    -24.16333501	   2790.72588425	  -3898.55906527	     31.78034600	     51.65838491	    370.71930963	      4.62923457	     17.51919786	     12.74311131	      7.44595481	    -45.00000000	    -37.89754165	     45.00000000	    -45.00000000	  -1350.73217038	    266.18781685	    134.21792277	   -179.99999979	   1450.18452802	     30.63602181	      9.72885474	    -21.25404167
      7.78000000	     40.29357643	     12.80159166	     14.62714666	   -145.31084468	    796.76307061	      6.99628057	     14.51014838	     42.49335302	     41.60545442	     45.00000000	    -23.94534739	   2790.85018179	  -3898.92963659	     31.57951044	     52.11619181	    370.63146758	      5.52829184	     17.46367123	     12.90861838	      7.08419043	    -45.00000000	    -37.83311052	     45.00000000	    -45.00000000	  -1351.36800745	    266.03084861	    134.37456074	   -179.99999979	   1449.99258393	     30.90583290	      9.82602580	    -21.14750851
      7.79000000	     40.17121376	     13.09669344	     15.06120867	   -141.26622286	    794.25027544	      7.05188215	     13.91375033	     42.19309639	     41.51618061	     45.00000000	    -23.89639155	   2791.10821580	  -3899.30656713	     31.47273261	     52.13187083	    370.49695001	      6.27109028	     17.37907147	     12.85179670	      7.46670557	    -45.00000000	    -37.94186286	     45.00000000	    -45.00000000	  -1351.42705438	    265.59170837	    134.11600070	   -179.99999979	   1449.65352805	     31.29935615	     10.09977374	    -21.06911923
      7.80000000	     40.22344328	     12.96787508	     15.06601615	   -137.24706940	    791.79223822	      7.09886847	     15.12490396	     42.61610466	     42.08461672	     44.73190132	    -23.22530153	   2790.93034880	  -3899.53800714	     31.05712985	     52.97890844	    370.45487935	      7.62624117	     17.40118277	     13.06473887	      6.52155032	    -45.00000000	    -37.64928813	     45.00000000	    -45.00000000	  -1352.26604819	    265.54094985	    134.40139938	   -179.99999979	   1449.64711025	     31.75153477	      9.98165500	    -20.98373683
      7.81000000	     40.09468310	     12.93725215	     15.17318634	   -133.26502514	    789.40940115	      7.13658950	     15.23770063	     42.42347933	     42.44528942	     44.25892254	    -22.43864987	   2790.67338973	  -3899.80179601	     30.72017126	     53.85964642	    370.37032608	      9.04469279	     17.40971831	     13.06486822	      6.26300507	    -45.00000000	    -37.65120567	     45.00000000	    -45.00000000	  -1352.59566307	    265.44674530	    134.28060125	   -179.99999979	   1449.46887137	     32.26143267	     10.01481602	    -20.90601566
      7.82000000	     39.95392260	     12.98680349	     15.30013782	   -129.31929949	    787.11063659	      7.16589790	     15.19970197	     42.10680199	     42.66113855	     43.86332858	    -22.13910828	   2790.48228025	  -3900.04014164	     30.67775903	     54.28753193	    370.23656533	     10.24672412	     17.38831078	     13.19353399	      6.32419991	    -45.00000000	    -37.76124751	     45.00000000	    -45.00000000	  -1352.95685530	    265.34452543	    134.24738867	   -179.99999979	   1449.35623258	     32.80716586	     10.01883081	    -20.86656069
      7.83000000	     39.84673296	     12.94246670	     15.37179820	   -125.41606280	    784.90822371	      7.18911710	     15.19610019	     41.94714209	     42.96072839	     43.47053505	    -21.59253094	   2790.30462998	  -3900.28895190	     30.47788335	     55.02943018	    370.12105443	     11.53820902	     17.39552162	     13.18654807	      6.21625730	    -45.00000000	    -37.86660099	     45.00000000	    -45.00000000	  -1353.30724874	    265.26704504	    134.17387389	   -179.99999979	   1449.16559388	     33.41395974	     10.02850009	    -20.82208217
      7.84000000	     39.72601930	     12.91620219	     15.47014036	   -121.56054685	    782.81247526	      7.20953360	     15.10028750	     41.77562989	     43.25518958	     43.04236302	    -21.12206067	   2790.05146170	  -3900.54343179	     30.36313458	     55.70850881	    369.96145365	     12.76697823	     17.39076984	     13.16448258	      6.22769192	    -45.00000000	    -37.99526543	     45.00000000	    -45.00000000	  -1353.62234665	    265.20815459	    134.09594705	   -179.99999979	   1448.97306970	     34.01013693	     10.03557123	    -20.78853984
      7.85000000	     39.67656091	     12.91907376	     15.40483258	   -117.75814171	    780.83158887	      7.23120635	     15.28866405	     41.65566945	     43.57987572	     42.59473993	    -20.24072963	   2789.68333915	  -3900.70793605	     30.01599841	     56.69684625	    369.84671529	     14.17949251	     17.42191144	     13.14720897	      5.92252465	    -45.00000000	    -37.89623410	     45.00000000	    -45.00000000	  -1354.08454679	    265.19427162	    133.99438351	   -179.99999979	   1448.89192671	     34.63088138	      9.91407846	    -20.74327302
      7.86000000	     39.52344082	     12.79979887	     15.54395584	   -114.02613074	    778.97917054	      7.25803794	     15.06784210	     41.57249148	     43.92779510	     42.14788641	    -19.57277067	   2789.45790094	  -3900.94676959	     29.75017856	     57.61231032	    369.80450837	     15.52012925	     17.45955058	     12.98110282	      5.91238803	    -45.00000000	    -38.09866319	     45.00000000	    -45.00000000	  -1354.34757683	    265.10846782	    133.97879935	   -179.99999979	   1448.64147529	     35.28770742	      9.89637136	    -20.71103246
